<?xml version="1.0" encoding="utf-8"?>
<!-- Generator: Adobe Illustrator 27.5.0, SVG Export Plug-In . SVG Version: 6.00 Build 0)  -->
<svg version="1.1" xmlns="http://www.w3.org/2000/svg" xmlns:xlink="http://www.w3.org/1999/xlink" x="0px" y="0px"
	 viewBox="0 0 500 500" style="enable-background:new 0 0 500 500;" xml:space="preserve">
<g id="Background_Simple">
	<g>
		<path style="fill:#C6FF00;" d="M321.062,338.344c0,0,39.018-2.439,65.842-50.398c26.825-47.959,21.947-121.117-11.38-161.76
			c-33.327-40.643-85.351-54.462-134.936-41.456c-24.16,6.337-40.27,22.773-54.193,42.585
			c-12.128,17.258-25.765,33.896-44.123,44.818c-18.177,10.814-36.862,19.44-46.041,39.994
			c-22.338,50.02-6.014,108.222,46.813,127.843C199.945,361.104,295.051,349.724,321.062,338.344z"/>
		<path style="opacity:0.7;fill:#FFFFFF;" d="M321.062,338.344c0,0,39.018-2.439,65.842-50.398
			c26.825-47.959,21.947-121.117-11.38-161.76c-33.327-40.643-85.351-54.462-134.936-41.456
			c-24.16,6.337-40.27,22.773-54.193,42.585c-12.128,17.258-25.765,33.896-44.123,44.818c-18.177,10.814-36.862,19.44-46.041,39.994
			c-22.338,50.02-6.014,108.222,46.813,127.843C199.945,361.104,295.051,349.724,321.062,338.344z"/>
	</g>
</g>
<g id="Device">
	<g id="XMLID_16_">
		<path id="XMLID_185_" style="fill:#263238;stroke:#263238;stroke-miterlimit:10;" d="M370.906,338.127h-246.67v-162.59
			c0-3.548,2.877-6.425,6.425-6.425h233.82c3.548,0,6.425,2.877,6.425,6.425V338.127z"/>
		<path id="XMLID_184_" style="fill:#263238;stroke:#263238;stroke-miterlimit:10;" d="M400.572,415.631H94.57
			c-3.376,0-6.23-4.852-4.731-7.877l34.398-66.839h246.67l34.585,66.601C406.989,410.542,403.948,415.631,400.572,415.631z"/>
		<path id="XMLID_183_" style="fill:#FFFFFF;stroke:#263238;stroke-linecap:round;stroke-linejoin:round;stroke-miterlimit:10;" d="
			M400.572,412.843H94.57c-3.376,0-5.578-3.547-4.079-6.572l33.746-68.143h246.67l33.745,68.143
			C406.15,409.296,403.948,412.843,400.572,412.843z"/>
		
			<rect id="XMLID_182_" x="139.177" y="182.495" style="fill:#FFFFFF;stroke:#263238;stroke-miterlimit:10;" width="216.788" height="142.249"/>
		<rect x="144.81" y="247.316" style="fill:#C6FF00;" width="206.318" height="72.301"/>
		<path style="opacity:0.46;fill:#FFFFFF;" d="M171.182,290.801v-1.822c0-0.538-0.436-0.974-0.974-0.974h-1.406
			c-0.213-0.934-0.581-1.809-1.076-2.597l0.994-0.994c0.381-0.38,0.381-0.997,0-1.378l-1.288-1.288c-0.38-0.38-0.997-0.38-1.378,0
			l-0.994,0.994c-0.788-0.495-1.662-0.863-2.597-1.076v-1.406c0-0.538-0.436-0.974-0.974-0.974h-1.822
			c-0.538,0-0.974,0.436-0.974,0.974v1.406c-0.934,0.213-1.809,0.581-2.597,1.076l-0.994-0.994c-0.38-0.38-0.997-0.38-1.378,0
			l-1.288,1.288c-0.38,0.38-0.38,0.997,0,1.378l0.994,0.994c-0.495,0.788-0.863,1.663-1.076,2.597h-1.406
			c-0.538,0-0.974,0.436-0.974,0.974v1.822c0,0.538,0.436,0.974,0.974,0.974h1.406c0.213,0.934,0.581,1.809,1.076,2.597
			l-0.994,0.994c-0.38,0.38-0.38,0.997,0,1.378l1.288,1.288c0.381,0.38,0.997,0.38,1.378,0l0.994-0.994
			c0.787,0.495,1.662,0.862,2.597,1.076v1.406c0,0.538,0.436,0.974,0.974,0.974h1.822c0.538,0,0.974-0.436,0.974-0.974v-1.406
			c0.934-0.213,1.809-0.581,2.597-1.076l0.994,0.994c0.38,0.38,0.997,0.38,1.378,0l1.288-1.288c0.381-0.38,0.381-0.997,0-1.378
			l-0.994-0.994c0.495-0.788,0.862-1.663,1.076-2.597h1.406C170.746,291.775,171.182,291.339,171.182,290.801z M161.004,294.034
			c-2.635,0.261-4.831-1.935-4.57-4.569c0.193-1.949,1.77-3.526,3.719-3.719c2.634-0.261,4.83,1.935,4.569,4.569
			C164.53,292.264,162.954,293.841,161.004,294.034z"/>
		<path style="opacity:0.46;fill:#FFFFFF;" d="M188.348,303.552v-1.822c0-0.538-0.436-0.974-0.974-0.974h-1.406
			c-0.213-0.934-0.581-1.809-1.076-2.597l0.994-0.994c0.38-0.38,0.38-0.997,0-1.378l-1.288-1.288c-0.381-0.38-0.997-0.38-1.378,0
			l-0.994,0.994c-0.788-0.495-1.663-0.862-2.597-1.076v-1.406c0-0.538-0.436-0.974-0.974-0.974h-1.822
			c-0.538,0-0.974,0.436-0.974,0.974v1.406c-0.934,0.213-1.809,0.581-2.597,1.076l-0.994-0.994c-0.38-0.38-0.997-0.38-1.378,0
			l-1.288,1.288c-0.38,0.38-0.38,0.997,0,1.378l0.994,0.994c-0.495,0.788-0.862,1.663-1.076,2.597h-1.406
			c-0.538,0-0.974,0.436-0.974,0.974v1.822c0,0.538,0.436,0.974,0.974,0.974h1.406c0.213,0.934,0.581,1.809,1.076,2.597
			l-0.994,0.994c-0.38,0.38-0.38,0.997,0,1.378l1.288,1.288c0.381,0.38,0.997,0.38,1.378,0l0.994-0.994
			c0.788,0.495,1.662,0.862,2.597,1.076v1.406c0,0.538,0.436,0.974,0.974,0.974h1.822c0.538,0,0.974-0.436,0.974-0.974v-1.406
			c0.934-0.213,1.809-0.581,2.597-1.076l0.994,0.994c0.38,0.38,0.997,0.38,1.378,0l1.288-1.288c0.38-0.38,0.38-0.997,0-1.378
			l-0.994-0.994c0.495-0.788,0.863-1.663,1.076-2.597h1.406C187.912,304.527,188.348,304.09,188.348,303.552z M178.17,306.786
			c-2.634,0.261-4.83-1.935-4.57-4.569c0.193-1.949,1.77-3.526,3.719-3.719c2.635-0.261,4.83,1.935,4.569,4.569
			C181.696,305.016,180.119,306.593,178.17,306.786z"/>
		
			<line style="fill:none;stroke:#263238;stroke-width:0.868;stroke-linecap:round;stroke-linejoin:round;stroke-miterlimit:10;" x1="152.904" y1="253.846" x2="190.304" y2="253.846"/>
		
			<line style="fill:none;stroke:#263238;stroke-width:0.868;stroke-linecap:round;stroke-linejoin:round;stroke-miterlimit:10;" x1="152.904" y1="259.242" x2="190.304" y2="259.242"/>
		
			<line style="fill:none;stroke:#263238;stroke-width:0.868;stroke-linecap:round;stroke-linejoin:round;stroke-miterlimit:10;" x1="152.904" y1="264.638" x2="190.304" y2="264.638"/>
		
			<line style="fill:none;stroke:#263238;stroke-width:0.868;stroke-linecap:round;stroke-linejoin:round;stroke-miterlimit:10;" x1="152.904" y1="270.033" x2="190.304" y2="270.033"/>
		<path style="fill:#C6FF00;" d="M347.167,197.571H148.772c-2.188,0-3.962-1.774-3.962-3.962v-0.449
			c0-2.188,1.774-3.962,3.962-3.962h198.395c2.188,0,3.962,1.774,3.962,3.962v0.449
			C351.128,195.797,349.355,197.571,347.167,197.571z"/>
		<path style="fill:#C6FF00;" d="M347.167,225.17H148.772c-2.188,0-3.962-1.774-3.962-3.962v-0.449c0-2.188,1.774-3.962,3.962-3.962
			h198.395c2.188,0,3.962,1.774,3.962,3.962v0.449C351.128,223.396,349.355,225.17,347.167,225.17z"/>
		<g id="XMLID_17_">
			<polygon id="XMLID_180_" style="fill:#263238;stroke:#FFFFFF;stroke-miterlimit:10;" points="237.281,361.777 237.709,352.673 
				224.675,352.673 223.812,361.777 			"/>
			<polygon id="XMLID_166_" style="fill:#263238;stroke:#FFFFFF;stroke-miterlimit:10;" points="264.22,361.777 263.776,352.673 
				250.742,352.673 250.751,361.777 			"/>
			<polygon id="XMLID_165_" style="fill:#263238;stroke:#FFFFFF;stroke-miterlimit:10;" points="334.372,371.512 348.308,371.512 
				345.036,361.777 331.567,361.777 			"/>
			<polygon id="XMLID_154_" style="fill:#263238;stroke:#FFFFFF;stroke-miterlimit:10;" points="223.812,361.777 224.675,352.673 
				211.642,352.673 210.342,361.777 			"/>
			<polygon id="XMLID_153_" style="fill:#263238;stroke:#FFFFFF;stroke-miterlimit:10;" points="196.873,361.777 198.608,352.673 
				185.574,352.673 183.404,361.777 			"/>
			<polygon id="XMLID_152_" style="fill:#263238;stroke:#FFFFFF;stroke-miterlimit:10;" points="318.098,361.777 315.91,352.673 
				302.876,352.673 304.628,361.777 			"/>
			<polygon id="XMLID_151_" style="fill:#263238;stroke:#FFFFFF;stroke-miterlimit:10;" points="331.567,361.777 328.944,352.673 
				315.91,352.673 318.098,361.777 			"/>
			<polygon id="XMLID_150_" style="fill:#263238;stroke:#FFFFFF;stroke-miterlimit:10;" points="183.404,361.777 185.574,352.673 
				172.541,352.673 169.934,361.777 			"/>
			<polygon id="XMLID_149_" style="fill:#263238;stroke:#FFFFFF;stroke-miterlimit:10;" points="277.689,361.777 276.809,352.673 
				263.776,352.673 264.22,361.777 			"/>
			<polygon id="XMLID_147_" style="fill:#263238;stroke:#FFFFFF;stroke-miterlimit:10;" points="345.036,361.777 341.977,352.673 
				328.944,352.673 331.567,361.777 			"/>
			<polygon id="XMLID_145_" style="fill:#263238;stroke:#FFFFFF;stroke-miterlimit:10;" points="304.628,361.777 302.876,352.673 
				289.843,352.673 291.159,361.777 			"/>
			<polygon id="XMLID_144_" style="fill:#263238;stroke:#FFFFFF;stroke-miterlimit:10;" points="291.159,361.777 289.843,352.673 
				276.809,352.673 277.689,361.777 			"/>
			<polygon id="XMLID_143_" style="fill:#263238;stroke:#FFFFFF;stroke-miterlimit:10;" points="250.751,361.777 250.742,352.673 
				237.709,352.673 237.281,361.777 			"/>
			<polygon id="XMLID_142_" style="fill:#263238;stroke:#FFFFFF;stroke-miterlimit:10;" points="156.465,361.777 142.996,361.777 
				139.277,371.512 153.212,371.512 			"/>
			<polygon id="XMLID_141_" style="fill:#263238;stroke:#FFFFFF;stroke-miterlimit:10;" points="159.508,352.673 146.474,352.673 
				142.996,361.777 156.465,361.777 			"/>
			<polygon id="XMLID_140_" style="fill:#263238;stroke:#FFFFFF;stroke-miterlimit:10;" points="169.934,361.777 172.541,352.673 
				159.508,352.673 156.465,361.777 			"/>
			<polygon id="XMLID_134_" style="fill:#263238;stroke:#FFFFFF;stroke-miterlimit:10;" points="135.291,381.945 131.009,393.152 
				145.98,393.152 149.726,381.945 			"/>
			<polygon id="XMLID_133_" style="fill:#263238;stroke:#FFFFFF;stroke-miterlimit:10;" points="153.212,371.512 139.277,371.512 
				135.291,381.945 149.726,381.945 			"/>
			<polygon id="XMLID_131_" style="fill:#263238;stroke:#FFFFFF;stroke-miterlimit:10;" points="149.726,381.945 145.98,393.152 
				160.952,393.152 164.16,381.945 			"/>
			<polygon id="XMLID_130_" style="fill:#263238;stroke:#FFFFFF;stroke-miterlimit:10;" points="210.342,361.777 211.642,352.673 
				198.608,352.673 196.873,361.777 			"/>
			<polygon id="XMLID_129_" style="fill:#263238;stroke:#FFFFFF;stroke-miterlimit:10;" points="208.953,371.512 210.342,361.777 
				196.873,361.777 195.018,371.512 			"/>
			<polygon id="XMLID_128_" style="fill:#263238;stroke:#FFFFFF;stroke-miterlimit:10;" points="195.018,371.512 196.873,361.777 
				183.404,361.777 181.083,371.512 			"/>
			<polygon id="XMLID_93_" style="fill:#263238;stroke:#FFFFFF;stroke-miterlimit:10;" points="222.889,371.512 223.812,361.777 
				210.342,361.777 208.953,371.512 			"/>
			<polygon id="XMLID_92_" style="fill:#263238;stroke:#FFFFFF;stroke-miterlimit:10;" points="169.934,361.777 156.465,361.777 
				153.212,371.512 167.147,371.512 			"/>
			<polygon id="XMLID_91_" style="fill:#263238;stroke:#FFFFFF;stroke-miterlimit:10;" points="337.378,381.945 351.813,381.945 
				348.308,371.512 334.372,371.512 			"/>
			<polygon id="XMLID_90_" style="fill:#263238;stroke:#FFFFFF;stroke-miterlimit:10;" points="181.083,371.512 183.404,361.777 
				169.934,361.777 167.147,371.512 			"/>
			<polygon id="XMLID_89_" style="fill:#263238;stroke:#FFFFFF;stroke-miterlimit:10;" points="153.212,371.512 149.726,381.945 
				164.16,381.945 167.147,371.512 			"/>
			<polygon id="XMLID_88_" style="fill:#263238;stroke:#FFFFFF;stroke-miterlimit:10;" points="306.501,371.512 304.628,361.777 
				291.159,361.777 292.566,371.512 			"/>
			<polygon id="XMLID_79_" style="fill:#263238;stroke:#FFFFFF;stroke-miterlimit:10;" points="292.566,371.512 291.159,361.777 
				277.689,361.777 278.63,371.512 			"/>
			<polygon id="XMLID_73_" style="fill:#263238;stroke:#FFFFFF;stroke-miterlimit:10;" points="334.372,371.512 331.567,361.777 
				318.098,361.777 320.437,371.512 			"/>
			<polygon id="XMLID_72_" style="fill:#263238;stroke:#FFFFFF;stroke-miterlimit:10;" points="250.76,371.512 250.751,361.777 
				237.281,361.777 236.824,371.512 			"/>
			<polygon id="XMLID_71_" style="fill:#263238;stroke:#FFFFFF;stroke-miterlimit:10;" points="278.63,371.512 277.689,361.777 
				264.22,361.777 264.695,371.512 			"/>
			<polygon id="XMLID_70_" style="fill:#263238;stroke:#FFFFFF;stroke-miterlimit:10;" points="264.695,371.512 264.22,361.777 
				250.751,361.777 250.76,371.512 			"/>
			<polygon id="XMLID_69_" style="fill:#263238;stroke:#FFFFFF;stroke-miterlimit:10;" points="236.824,371.512 237.281,361.777 
				223.812,361.777 222.889,371.512 			"/>
			<polygon id="XMLID_68_" style="fill:#263238;stroke:#FFFFFF;stroke-miterlimit:10;" points="278.63,371.512 279.639,381.945 
				294.074,381.945 292.566,371.512 			"/>
			<polygon id="XMLID_67_" style="fill:#263238;stroke:#FFFFFF;stroke-miterlimit:10;" points="292.566,371.512 294.074,381.945 
				308.509,381.945 306.501,371.512 			"/>
			<polygon id="XMLID_66_" style="fill:#263238;stroke:#FFFFFF;stroke-miterlimit:10;" points="167.147,371.512 164.16,381.945 
				178.595,381.945 181.083,371.512 			"/>
			<polygon id="XMLID_65_" style="fill:#263238;stroke:#FFFFFF;stroke-miterlimit:10;" points="306.501,371.512 308.509,381.945 
				322.943,381.945 320.437,371.512 			"/>
			<polygon id="XMLID_64_" style="fill:#263238;stroke:#FFFFFF;stroke-miterlimit:10;" points="250.76,371.512 250.769,381.945 
				265.204,381.945 264.695,371.512 			"/>
			<polygon id="XMLID_63_" style="fill:#263238;stroke:#FFFFFF;stroke-miterlimit:10;" points="320.437,371.512 322.943,381.945 
				337.378,381.945 334.372,371.512 			"/>
			<polygon id="XMLID_62_" style="fill:#263238;stroke:#FFFFFF;stroke-miterlimit:10;" points="264.695,371.512 265.204,381.945 
				279.639,381.945 278.63,371.512 			"/>
			<polygon id="XMLID_61_" style="fill:#263238;stroke:#FFFFFF;stroke-miterlimit:10;" points="195.018,371.512 193.03,381.945 
				207.465,381.945 208.953,371.512 			"/>
			<polygon id="XMLID_60_" style="fill:#263238;stroke:#FFFFFF;stroke-miterlimit:10;" points="181.083,371.512 178.595,381.945 
				193.03,381.945 195.018,371.512 			"/>
			<polygon id="XMLID_59_" style="fill:#263238;stroke:#FFFFFF;stroke-miterlimit:10;" points="236.824,371.512 236.335,381.945 
				250.769,381.945 250.76,371.512 			"/>
			<polygon id="XMLID_58_" style="fill:#263238;stroke:#FFFFFF;stroke-miterlimit:10;" points="222.889,371.512 221.9,381.945 
				236.335,381.945 236.824,371.512 			"/>
			<polygon id="XMLID_57_" style="fill:#263238;stroke:#FFFFFF;stroke-miterlimit:10;" points="208.953,371.512 207.465,381.945 
				221.9,381.945 222.889,371.512 			"/>
			<polygon id="XMLID_56_" style="fill:#263238;stroke:#FFFFFF;stroke-miterlimit:10;" points="320.437,371.512 318.098,361.777 
				304.628,361.777 306.501,371.512 			"/>
			<polygon id="XMLID_55_" style="fill:#263238;stroke:#FFFFFF;stroke-miterlimit:10;" points="159.508,352.673 162.622,343.354 
				150.035,343.354 146.474,352.673 			"/>
			<polygon id="XMLID_54_" style="fill:#263238;stroke:#FFFFFF;stroke-miterlimit:10;" points="146.474,352.673 134.443,352.673 
				130.562,361.777 142.996,361.777 			"/>
			<polygon id="XMLID_52_" style="fill:#263238;stroke:#FFFFFF;stroke-miterlimit:10;" points="150.035,343.354 138.415,343.354 
				134.443,352.673 146.474,352.673 			"/>
			<polygon id="XMLID_50_" style="fill:#263238;stroke:#FFFFFF;stroke-miterlimit:10;" points="142.996,361.777 130.562,361.777 
				126.413,371.512 139.277,371.512 			"/>
			<polygon id="XMLID_49_" style="fill:#263238;stroke:#FFFFFF;stroke-miterlimit:10;" points="139.277,371.512 126.413,371.512 
				121.966,381.945 135.291,381.945 			"/>
			<polygon id="XMLID_48_" style="fill:#263238;stroke:#FFFFFF;stroke-miterlimit:10;" points="135.291,381.945 121.966,381.945 
				117.189,393.152 131.009,393.152 			"/>
			<polygon id="XMLID_47_" style="fill:#263238;stroke:#FFFFFF;stroke-miterlimit:10;" points="358.506,361.777 362.243,371.512 
				374.57,371.512 370.421,361.777 			"/>
			<polygon id="XMLID_45_" style="fill:#263238;stroke:#FFFFFF;stroke-miterlimit:10;" points="366.248,381.945 379.017,381.945 
				374.57,371.512 362.243,371.512 			"/>
			<polygon id="XMLID_43_" style="fill:#263238;stroke:#FFFFFF;stroke-miterlimit:10;" points="370.551,393.152 383.794,393.152 
				379.017,381.945 366.248,381.945 			"/>
			<polygon id="XMLID_42_" style="fill:#263238;stroke:#FFFFFF;stroke-miterlimit:10;" points="263.776,352.673 263.321,343.354 
				250.734,343.354 250.742,352.673 			"/>
			<polygon id="XMLID_41_" style="fill:#263238;stroke:#FFFFFF;stroke-miterlimit:10;" points="358.506,361.777 370.421,361.777 
				366.54,352.673 355.011,352.673 			"/>
			<polygon id="XMLID_40_" style="fill:#263238;stroke:#FFFFFF;stroke-miterlimit:10;" points="351.813,381.945 366.248,381.945 
				362.243,371.512 348.308,371.512 			"/>
			<polygon id="XMLID_39_" style="fill:#263238;stroke:#FFFFFF;stroke-miterlimit:10;" points="172.541,352.673 175.209,343.354 
				162.622,343.354 159.508,352.673 			"/>
			<polygon id="XMLID_38_" style="fill:#263238;stroke:#FFFFFF;stroke-miterlimit:10;" points="341.977,352.673 345.036,361.777 
				358.506,361.777 355.011,352.673 			"/>
			<polygon id="XMLID_37_" style="fill:#263238;stroke:#FFFFFF;stroke-miterlimit:10;" points="366.54,352.673 362.568,343.354 
				351.433,343.354 355.011,352.673 			"/>
			<polygon id="XMLID_36_" style="fill:#263238;stroke:#FFFFFF;stroke-miterlimit:10;" points="355.011,352.673 351.433,343.354 
				338.846,343.354 341.977,352.673 			"/>
			<polygon id="XMLID_35_" style="fill:#263238;stroke:#FFFFFF;stroke-miterlimit:10;" points="308.509,381.945 310.665,393.152 
				325.636,393.152 322.943,381.945 			"/>
			<polygon id="XMLID_34_" style="fill:#263238;stroke:#FFFFFF;stroke-miterlimit:10;" points="355.579,393.152 370.551,393.152 
				366.248,381.945 351.813,381.945 			"/>
			<polygon id="XMLID_33_" style="fill:#263238;stroke:#FFFFFF;stroke-miterlimit:10;" points="341.977,352.673 338.846,343.354 
				326.258,343.354 328.944,352.673 			"/>
			<polygon id="XMLID_32_" style="fill:#263238;stroke:#FFFFFF;stroke-miterlimit:10;" points="337.378,381.945 340.608,393.152 
				355.579,393.152 351.813,381.945 			"/>
			<polygon id="XMLID_31_" style="fill:#263238;stroke:#FFFFFF;stroke-miterlimit:10;" points="322.943,381.945 325.636,393.152 
				340.608,393.152 337.378,381.945 			"/>
			<polygon id="XMLID_30_" style="fill:#263238;stroke:#FFFFFF;stroke-miterlimit:10;" points="348.308,371.512 362.243,371.512 
				358.506,361.777 345.036,361.777 			"/>
			<polygon id="XMLID_29_" style="fill:#263238;stroke:#FFFFFF;stroke-miterlimit:10;" points="224.675,352.673 225.559,343.354 
				212.971,343.354 211.642,352.673 			"/>
			<polygon id="XMLID_28_" style="fill:#263238;stroke:#FFFFFF;stroke-miterlimit:10;" points="328.944,352.673 326.258,343.354 
				313.671,343.354 315.91,352.673 			"/>
			<polygon id="XMLID_27_" style="fill:#263238;stroke:#FFFFFF;stroke-miterlimit:10;" points="211.642,352.673 212.971,343.354 
				200.384,343.354 198.608,352.673 			"/>
			<polygon id="XMLID_26_" style="fill:#263238;stroke:#FFFFFF;stroke-miterlimit:10;" points="250.742,352.673 250.734,343.354 
				238.146,343.354 237.709,352.673 			"/>
			<polygon id="XMLID_25_" style="fill:#263238;stroke:#FFFFFF;stroke-miterlimit:10;" points="198.608,352.673 200.384,343.354 
				187.797,343.354 185.574,352.673 			"/>
			<polygon id="XMLID_24_" style="fill:#263238;stroke:#FFFFFF;stroke-miterlimit:10;" points="185.574,352.673 187.797,343.354 
				175.209,343.354 172.541,352.673 			"/>
			<polygon id="XMLID_23_" style="fill:#263238;stroke:#FFFFFF;stroke-miterlimit:10;" points="237.709,352.673 238.146,343.354 
				225.559,343.354 224.675,352.673 			"/>
			<polygon id="XMLID_22_" style="fill:#263238;stroke:#FFFFFF;stroke-miterlimit:10;" points="315.91,352.673 313.671,343.354 
				301.083,343.354 302.876,352.673 			"/>
			<polygon id="XMLID_21_" style="fill:#263238;stroke:#FFFFFF;stroke-miterlimit:10;" points="302.876,352.673 301.083,343.354 
				288.496,343.354 289.843,352.673 			"/>
			<polygon id="XMLID_20_" style="fill:#263238;stroke:#FFFFFF;stroke-miterlimit:10;" points="276.809,352.673 275.908,343.354 
				263.321,343.354 263.776,352.673 			"/>
			<polygon id="XMLID_19_" style="fill:#263238;stroke:#FFFFFF;stroke-miterlimit:10;" points="308.509,381.945 294.074,381.945 
				279.639,381.945 265.204,381.945 250.769,381.945 236.335,381.945 221.9,381.945 207.465,381.945 193.03,381.945 
				178.595,381.945 164.16,381.945 160.952,393.152 175.923,393.152 190.894,393.152 205.865,393.152 220.837,393.152 
				235.808,393.152 250.78,393.152 265.751,393.152 280.722,393.152 295.694,393.152 310.665,393.152 			"/>
			<polygon id="XMLID_18_" style="fill:#263238;stroke:#FFFFFF;stroke-miterlimit:10;" points="289.843,352.673 288.496,343.354 
				275.908,343.354 276.809,352.673 			"/>
		</g>
	</g>
</g>
<g id="Character_1_">
	<g>
		<defs>
			<rect id="XMLID_1_" x="161.673" y="142.093" width="176.262" height="182.139"/>
		</defs>
		<clipPath id="XMLID_00000023261358310878876190000005938464697367600012_">
			<use xlink:href="#XMLID_1_"  style="overflow:visible;"/>
		</clipPath>
		<g style="clip-path:url(#XMLID_00000023261358310878876190000005938464697367600012_);">
			
				<ellipse style="fill:#263238;stroke:#263238;stroke-linecap:round;stroke-linejoin:round;stroke-miterlimit:10;" cx="267.116" cy="230.226" rx="26.673" ry="33.947"/>
			<path style="fill:none;stroke:#263238;stroke-linecap:round;stroke-linejoin:round;stroke-miterlimit:10;" d="M218.806,238.763
				c0,0-22.289,67.041-22.289,68.7c0,1.659,6.635,9.124,10.783,8.709c4.147-0.415,11.612-4.977,11.612-4.977l7.465-65.525
				L218.806,238.763z"/>
			<g>
				<defs>
					<polygon id="XMLID_4_" points="263.051,229.914 218.806,238.763 225.894,325.924 312.173,325.924 323.665,235.224 
						271.014,229.472 					"/>
				</defs>
				<use xlink:href="#XMLID_4_"  style="overflow:visible;fill:#C6FF00;"/>
				<clipPath id="XMLID_00000060725822849829349790000006930936638275698075_">
					<use xlink:href="#XMLID_4_"  style="overflow:visible;"/>
				</clipPath>
				<polygon style="opacity:0.3;clip-path:url(#XMLID_00000060725822849829349790000006930936638275698075_);" points="
					225.894,325.924 312.173,325.924 314.336,308.853 314.176,308.023 293.359,312.565 302.443,274.339 252.484,296.291 
					240.373,308.402 247.942,308.402 225.661,323.06 				"/>
				
					<use xlink:href="#XMLID_4_"  style="overflow:visible;fill:none;stroke:#263238;stroke-linecap:round;stroke-linejoin:round;stroke-miterlimit:10;"/>
			</g>
			<path style="fill:#C6FF00;stroke:#263238;stroke-linecap:round;stroke-linejoin:round;stroke-miterlimit:10;" d="
				M258.349,225.004c0,0-7.183,3.921-8.953,7.461c-1.77,3.539-9.352,29.748-9.352,29.748l12.388,2.655l-11.946,5.752l18.071,51.765
				l28.758-1.77l18.651-54.42l-11.503-4.867l10.176-4.424c0,0-9.734-18.582-15.043-26.546
				C284.288,222.393,258.349,225.004,258.349,225.004z"/>
			<polygon style="fill:#FFFFFF;stroke:#263238;stroke-linecap:round;stroke-linejoin:round;stroke-miterlimit:10;" points="
				257.23,326.809 256.856,235.666 280.748,233.454 287.758,325.924 			"/>
			<g>
				<defs>
					<path id="XMLID_2_" d="M253.317,211.774c0,0,3.097,17.255,3.54,21.679c0.442,4.424,11.877,35.847,15.296,30.72
						c3.73-5.596,8.154-23.198,9.039-27.18c0.885-3.982,0.885-21.237,0.885-21.237S270.572,223.72,253.317,211.774z"/>
				</defs>
				<use xlink:href="#XMLID_2_"  style="overflow:visible;fill:#FFFFFF;"/>
				<clipPath id="XMLID_00000156587214546511822440000015241632553492084898_">
					<use xlink:href="#XMLID_2_"  style="overflow:visible;"/>
				</clipPath>
				<path style="clip-path:url(#XMLID_00000156587214546511822440000015241632553492084898_);fill:#C6FF00;" d="M281.902,227.23
					c0.173-5.658,0.174-11.474,0.174-11.474s-11.503,7.964-28.759-3.982c0,0,1.275,7.102,2.305,13.362
					c2.36,3.03,6.847,7.773,12.385,8.659C273.704,234.707,278.298,231.685,281.902,227.23z"/>
				<path style="opacity:0.5;clip-path:url(#XMLID_00000156587214546511822440000015241632553492084898_);fill:#FFFFFF;" d="
					M281.902,227.23c0.173-5.658,0.174-11.474,0.174-11.474s-11.503,7.964-28.759-3.982c0,0,1.275,7.102,2.305,13.362
					c2.36,3.03,6.847,7.773,12.385,8.659C273.704,234.707,278.298,231.685,281.902,227.23z"/>
				
					<use xlink:href="#XMLID_2_"  style="overflow:visible;fill:none;stroke:#263238;stroke-linecap:round;stroke-linejoin:round;stroke-miterlimit:10;"/>
			</g>
			<path style="fill:#FFFFFF;stroke:#263238;stroke-linecap:round;stroke-linejoin:round;stroke-miterlimit:10;" d="
				M291.367,194.519c0,0,4.867-6.194,4.867,0.885c0,7.079-4.867,7.964-4.867,7.964V194.519z"/>
			<g>
				<g>
					<defs>
						<path id="XMLID_3_" d="M243.141,179.919c0,0,5.752,26.076,5.752,29.643c0,7.506,14.158,15.928,20.352,17.698
							c6.194,1.77,21.237-11.946,22.122-15.485c0.885-3.54,1.327-34.51-0.442-40.704c-1.77-6.194-11.946-10.176-18.582-10.176
							C265.705,160.894,246.238,164.433,243.141,179.919z"/>
					</defs>
					<use xlink:href="#XMLID_3_"  style="overflow:visible;fill:#FFFFFF;"/>
					<clipPath id="XMLID_00000136381637800390283070000006968024075036025491_">
						<use xlink:href="#XMLID_3_"  style="overflow:visible;"/>
					</clipPath>
					<g style="clip-path:url(#XMLID_00000136381637800390283070000006968024075036025491_);">
						<path style="fill:#C6FF00;" d="M272.342,160.894c-6.637,0-26.104,3.54-29.201,19.025c0,0,3.44,15.6,4.999,24.317
							c0.04-3.977,0.704-11.659,5.011-15.009c5.942-4.622,15.847-5.282,21.459-7.923c5.612-2.641,6.933-9.574,6.933-9.574
							s0.33,12.215,2.971,15.186c2.641,2.971,5.282,4.952,5.612,10.234s1.32,10.564-1.321,14.856
							c-2.641,4.292-13.536,12.545-18.488,14.196c-0.763,0.254-1.498,0.482-2.203,0.691c0.398,0.142,0.778,0.266,1.129,0.366
							c6.194,1.77,21.237-11.946,22.122-15.485c0.885-3.54,1.327-34.51-0.443-40.705
							C289.154,164.876,278.978,160.894,272.342,160.894z"/>
						<path style="fill:#C6FF00;" d="M263.148,224.64c-2.408-2.427-9.035-9.155-11.978-12.633c-1.16-1.371-1.88-2.403-2.325-3.175
							c0.029,0.294,0.047,0.548,0.047,0.731C248.892,215.106,256.614,221.146,263.148,224.64z"/>
					</g>
					<g style="opacity:0.5;clip-path:url(#XMLID_00000136381637800390283070000006968024075036025491_);">
						<path style="fill:#FFFFFF;" d="M272.342,160.894c-6.637,0-26.104,3.54-29.201,19.025c0,0,3.44,15.6,4.999,24.317
							c0.04-3.977,0.704-11.659,5.011-15.009c5.942-4.622,15.847-5.282,21.459-7.923c5.612-2.641,6.933-9.574,6.933-9.574
							s0.33,12.215,2.971,15.186c2.641,2.971,5.282,4.952,5.612,10.234s1.32,10.564-1.321,14.856
							c-2.641,4.292-13.536,12.545-18.488,14.196c-0.763,0.254-1.498,0.482-2.203,0.691c0.398,0.142,0.778,0.266,1.129,0.366
							c6.194,1.77,21.237-11.946,22.122-15.485c0.885-3.54,1.327-34.51-0.443-40.705
							C289.154,164.876,278.978,160.894,272.342,160.894z"/>
						<path style="fill:#FFFFFF;" d="M263.148,224.64c-2.408-2.427-9.035-9.155-11.978-12.633c-1.16-1.371-1.88-2.403-2.325-3.175
							c0.029,0.294,0.047,0.548,0.047,0.731C248.892,215.106,256.614,221.146,263.148,224.64z"/>
					</g>
					
						<use xlink:href="#XMLID_3_"  style="overflow:visible;fill:none;stroke:#263238;stroke-linecap:round;stroke-linejoin:round;stroke-miterlimit:10;"/>
				</g>
				<g>
					<path style="fill:#263238;" d="M266.055,195.932c0,1.238-0.559,2.241-1.249,2.241s-1.249-1.004-1.249-2.241
						c0-1.238,0.559-2.241,1.249-2.241S266.055,194.695,266.055,195.932z"/>
					<path style="fill:#263238;" d="M280.618,195.932c0,1.238-0.559,2.241-1.249,2.241c-0.69,0-1.249-1.004-1.249-2.241
						c0-1.238,0.559-2.241,1.249-2.241C280.059,193.691,280.618,194.695,280.618,195.932z"/>
					<path style="fill:none;stroke:#263238;stroke-linecap:round;stroke-linejoin:round;stroke-miterlimit:10;" d="M275.177,193.276
						c0,0-1.328,4.316,0,5.645c1.328,1.328,4.316,0.664,3.984,2.324c-0.332,1.66-5.313,3.652-5.313,3.652"/>
					<path style="fill:none;stroke:#263238;stroke-linecap:round;stroke-linejoin:round;stroke-miterlimit:10;" d="M273.185,210.874
						c0,0-5.977,2.324-8.633-1.66"/>
					<path style="fill:none;stroke:#263238;stroke-linecap:round;stroke-linejoin:round;stroke-miterlimit:10;" d="M260.236,191.948
						c0,0,1.66-4.316,6.641-2.324"/>
					<path style="fill:none;stroke:#263238;stroke-linecap:round;stroke-linejoin:round;stroke-miterlimit:10;" d="M275.842,189.956
						c0,0,2.446-3.962,5.767,0.355"/>
				</g>
			</g>
			<g>
				<path style="fill:#263238;stroke:#263238;stroke-linecap:round;stroke-linejoin:round;stroke-miterlimit:10;" d="
					M293.136,164.433c-4.377-5.002-8.966-4.699-11.755-3.624c-3.745-6.295-16.099-11.3-32.046-5.225
					c-18.583,7.079-16.37,26.104-15.485,29.643c0.885,3.539,7.079,12.831,11.061,13.273c0,0,3.54-3.097,3.54-6.194
					c0-3.097,8.406-9.291,16.813-11.946c5.288-1.67,11.097-4.742,14.462-8.663c0.012,2.036,0.344,4.989,1.908,7.335
					c2.655,3.982,6.637,6.194,6.637,7.521s2.212,6.194,3.982,6.194c1.77,0,1.77-7.079,2.212-10.176
					C294.906,179.476,299.331,171.512,293.136,164.433z"/>
				<path style="fill:none;stroke:#FFFFFF;stroke-linecap:round;stroke-linejoin:round;stroke-miterlimit:10;" d="M244.296,183.229
					c-1.685,1.02-2.827,2.232-3.107,3.725"/>
				<path style="fill:none;stroke:#FFFFFF;stroke-linecap:round;stroke-linejoin:round;stroke-miterlimit:10;" d="M278.12,167.182
					c0,0-4.476,7.088-12.683,9.699c-5.025,1.599-12.567,2.778-17.917,4.822"/>
				<path style="fill:none;stroke:#FFFFFF;stroke-linecap:round;stroke-linejoin:round;stroke-miterlimit:10;" d="M274.39,165.317
					c0,0-8.207,5.596-17.533,6.342c-9.326,0.746-15.668-1.119-17.16,1.119"/>
				<path style="fill:none;stroke:#FFFFFF;stroke-linecap:round;stroke-linejoin:round;stroke-miterlimit:10;" d="M293.138,174.194
					c0.219,1.142,0.324,2.407,0.277,3.806"/>
				<path style="fill:none;stroke:#FFFFFF;stroke-linecap:round;stroke-linejoin:round;stroke-miterlimit:10;" d="M284.462,164.198
					c0,0,5.919,1.657,8.137,7.989"/>
			</g>
			<g>
				<path style="fill:none;stroke:#263238;stroke-linecap:round;stroke-linejoin:round;stroke-miterlimit:10;" d="M246.21,205.579
					c0,0,6.935,9.295,10.695,11.282c3.76,1.987,10.896-0.752,10.896-0.752"/>
				<path style="fill:#263238;" d="M270.276,216.187c0,0.917-1.115,1.66-2.49,1.66c-1.375,0-2.49-0.743-2.49-1.66
					c0-0.917,1.115-1.66,2.49-1.66C269.161,214.527,270.276,215.27,270.276,216.187z"/>
			</g>
			<path style="fill:#FFFFFF;" d="M242.308,192.922c0,0-8.207-21.264,0-33.947c0,0-12.683,13.056-1.492,36.931L242.308,192.922z"/>
			<g>
				<path style="fill:#FFFFFF;stroke:#263238;stroke-linecap:round;stroke-linejoin:round;stroke-miterlimit:10;" d="
					M248.035,199.808c0.749,4.987-0.616,9.326-3.05,9.692c-2.434,0.366-5.014-3.38-5.764-8.367c-0.749-4.987,0.616-9.326,3.05-9.692
					C244.704,191.075,247.285,194.821,248.035,199.808z"/>
				
					<ellipse transform="matrix(0.9889 -0.1486 0.1486 0.9889 -27.0842 38.2253)" style="fill:#FFFFFF;stroke:#263238;stroke-linecap:round;stroke-linejoin:round;stroke-miterlimit:10;" cx="242.222" cy="200.332" rx="3.964" ry="9.131"/>
			</g>
			<g>
				<defs>
					<polygon id="XMLID_5_" points="323.665,235.224 335.196,326.366 312.173,325.924 					"/>
				</defs>
				<use xlink:href="#XMLID_5_"  style="overflow:visible;fill:#C6FF00;"/>
				<clipPath id="XMLID_00000087378274593317342010000006858430631263244447_">
					<use xlink:href="#XMLID_5_"  style="overflow:visible;"/>
				</clipPath>
				<polygon style="opacity:0.3;clip-path:url(#XMLID_00000087378274593317342010000006858430631263244447_);" points="
					329.954,284.931 317.96,292.127 318.161,278.659 312.173,325.924 335.196,326.366 333.313,311.484 323.259,311.808 
					332.182,302.542 332.105,301.93 319.853,306.131 330.936,292.696 				"/>
				
					<use xlink:href="#XMLID_5_"  style="overflow:visible;fill:none;stroke:#263238;stroke-linecap:round;stroke-linejoin:round;stroke-miterlimit:10;"/>
			</g>
			<g>
				<path style="fill:#FFFFFF;stroke:#263238;stroke-linecap:round;stroke-linejoin:round;stroke-miterlimit:10;" d="
					M241.278,208.341c0,0,3.4-1.195,4.139,0.121c0.738,1.316,1.607,7.037,1.584,7.813c-0.023,0.776-0.304,1.544-1.841,0.982
					c-1.537-0.563-3.98-5.553-3.98-5.553L241.278,208.341z"/>
				<path style="fill:#FFFFFF;stroke:#263238;stroke-linecap:round;stroke-linejoin:round;stroke-miterlimit:10;" d="
					M226.403,226.383c0,0,3.152-20.251,3.216-22.449c0.064-2.197,2.963-4.037,4.4-4.545c1.437-0.508,9.397-0.275,10.25-0.251
					c0.853,0.025,4.272-0.15,4.24,0.949c-0.032,1.099-0.332,1.64-3.191,2.106c-2.859,0.466-9.697,0.816-9.697,0.816l-1.786,2.697
					l8.488,1.622c0,0,1.966,0.882,1.641,2.247c-0.324,1.365-1.354,7.383-1.378,8.207c-0.024,0.824-0.893,1.348-2.923,2.664
					c-2.03,1.315-4.028,1.532-4.028,1.532s0.164,4.128-0.989,4.645c-1.153,0.516-2.883,1.29-2.883,1.29l-0.405,23.63l-13.045-1.48
					L226.403,226.383z"/>
				
					<line style="fill:none;stroke:#263238;stroke-linecap:round;stroke-linejoin:round;stroke-miterlimit:10;" x1="243.28" y1="210.729" x2="232.978" y2="208.875"/>
				
					<line style="fill:none;stroke:#263238;stroke-linecap:round;stroke-linejoin:round;stroke-miterlimit:10;" x1="233.626" y1="213.295" x2="242.109" y2="215.355"/>
				<path style="fill:none;stroke:#263238;stroke-linecap:round;stroke-linejoin:round;stroke-miterlimit:10;" d="M235.636,221.979
					c0,0-1.423-2.195-0.639-2.43c0.783-0.236,2.609-0.701,2.609-0.701"/>
			</g>
			<g>
				<defs>
					<path id="XMLID_6_" d="M219.492,237.873l14.103,5.313c0,0-9.82,61.647-12.189,66.479c-2.369,4.832-7.88,10.464-15.029,11.146
						s-12.27-7.042-12.481-15.068C193.684,297.717,219.492,237.873,219.492,237.873z"/>
				</defs>
				<use xlink:href="#XMLID_6_"  style="overflow:visible;fill:#C6FF00;"/>
				<clipPath id="XMLID_00000046334976201842651790000015441847713896159914_">
					<use xlink:href="#XMLID_6_"  style="overflow:visible;"/>
				</clipPath>
				<path style="opacity:0.3;clip-path:url(#XMLID_00000046334976201842651790000015441847713896159914_);" d="M207.824,289.478
					c-3.682,1.905-7.405,3.296-10.729,4.307c-1.27,3.681-2.244,6.811-2.768,9.058c1.939-0.255,4.181-0.549,6.684-0.875
					c8.705-1.135,14.004-3.028,14.004-3.028s-10.976,6.813-20.816,7.948c-0.08,0.009-0.149,0.02-0.228,0.03
					c0.652,7.587,5.607,14.542,12.406,13.894c7.149-0.682,12.66-6.314,15.029-11.146c1.163-2.372,4.12-18.431,6.831-34.17
					C227.974,275.726,218.644,283.881,207.824,289.478z"/>
				
					<use xlink:href="#XMLID_6_"  style="overflow:visible;fill:none;stroke:#263238;stroke-linecap:round;stroke-linejoin:round;stroke-miterlimit:10;"/>
			</g>
		</g>
	</g>
</g>
<g id="Gears">
	<g>
		<path style="fill:#263238;" d="M358.731,132.028v-2.737c0-0.808-0.655-1.464-1.464-1.464h-2.112
			c-0.32-1.404-0.873-2.718-1.616-3.901l1.494-1.494c0.572-0.571,0.572-1.498,0-2.07l-1.935-1.935c-0.572-0.572-1.498-0.572-2.07,0
			l-1.494,1.494c-1.183-0.743-2.498-1.296-3.901-1.616v-2.112c0-0.808-0.655-1.464-1.464-1.464h-2.737
			c-0.808,0-1.464,0.655-1.464,1.464v2.112c-1.404,0.32-2.718,0.873-3.901,1.616l-1.494-1.494c-0.572-0.572-1.498-0.572-2.07,0
			l-1.935,1.935c-0.572,0.572-0.572,1.498,0,2.07l1.494,1.494c-0.743,1.183-1.296,2.498-1.616,3.901h-2.112
			c-0.808,0-1.464,0.655-1.464,1.464v2.737c0,0.808,0.655,1.464,1.464,1.464h2.112c0.32,1.404,0.873,2.718,1.616,3.902l-1.494,1.494
			c-0.572,0.572-0.572,1.498,0,2.07l1.935,1.935c0.571,0.572,1.498,0.572,2.07,0l1.494-1.494c1.183,0.743,2.498,1.296,3.901,1.616
			v2.112c0,0.808,0.655,1.464,1.464,1.464h2.737c0.808,0,1.464-0.655,1.464-1.464v-2.112c1.404-0.32,2.718-0.873,3.901-1.616
			l1.494,1.494c0.572,0.572,1.498,0.572,2.07,0l1.935-1.935c0.572-0.572,0.572-1.498,0-2.07l-1.494-1.494
			c0.744-1.183,1.296-2.498,1.616-3.902h2.112C358.076,133.491,358.731,132.836,358.731,132.028z M343.439,136.886
			c-3.958,0.392-7.258-2.907-6.866-6.865c0.29-2.929,2.659-5.298,5.588-5.588c3.958-0.392,7.257,2.907,6.865,6.865
			C348.737,134.227,346.368,136.596,343.439,136.886z"/>
		<path style="fill:#263238;" d="M102.726,251.46v-2.063c0-0.609-0.494-1.103-1.103-1.103h-1.592
			c-0.242-1.058-0.658-2.049-1.218-2.941l1.126-1.126c0.431-0.431,0.431-1.129,0-1.56l-1.459-1.459c-0.431-0.431-1.129-0.431-1.56,0
			l-1.126,1.126c-0.892-0.56-1.883-0.977-2.941-1.218v-1.592c0-0.609-0.494-1.103-1.103-1.103h-2.063
			c-0.609,0-1.103,0.494-1.103,1.103v1.592c-1.058,0.242-2.049,0.658-2.941,1.218l-1.126-1.126c-0.431-0.431-1.129-0.431-1.56,0
			l-1.459,1.459c-0.431,0.431-0.431,1.129,0,1.56l1.126,1.126c-0.561,0.892-0.977,1.883-1.218,2.941h-1.592
			c-0.609,0-1.103,0.494-1.103,1.103v2.063c0,0.609,0.494,1.103,1.103,1.103h1.592c0.242,1.058,0.658,2.049,1.218,2.941
			l-1.126,1.126c-0.431,0.431-0.431,1.129,0,1.56l1.459,1.459c0.431,0.431,1.129,0.431,1.56,0l1.126-1.126
			c0.892,0.561,1.883,0.977,2.941,1.219v1.592c0,0.609,0.494,1.103,1.103,1.103h2.063c0.609,0,1.103-0.494,1.103-1.103v-1.592
			c1.058-0.242,2.049-0.658,2.941-1.219l1.126,1.126c0.431,0.431,1.13,0.431,1.56,0l1.459-1.459c0.431-0.431,0.431-1.129,0-1.56
			l-1.126-1.126c0.561-0.892,0.977-1.883,1.218-2.941h1.592C102.232,252.564,102.726,252.07,102.726,251.46z M91.198,255.123
			c-2.984,0.296-5.471-2.192-5.175-5.176c0.219-2.208,2.005-3.994,4.213-4.212c2.984-0.296,5.471,2.192,5.175,5.175
			C95.192,253.118,93.406,254.904,91.198,255.123z"/>
		<path style="fill:#263238;" d="M409.315,223.979v-2.063c0-0.609-0.494-1.103-1.103-1.103h-1.592
			c-0.242-1.058-0.658-2.049-1.219-2.941l1.126-1.126c0.431-0.431,0.431-1.129,0-1.56l-1.459-1.459c-0.431-0.431-1.129-0.431-1.56,0
			l-1.126,1.126c-0.892-0.56-1.883-0.977-2.941-1.218v-1.592c0-0.609-0.494-1.103-1.103-1.103h-2.063
			c-0.609,0-1.103,0.494-1.103,1.103v1.592c-1.058,0.242-2.049,0.658-2.941,1.218l-1.126-1.126c-0.431-0.431-1.129-0.431-1.56,0
			l-1.459,1.459c-0.431,0.431-0.431,1.129,0,1.56l1.126,1.126c-0.561,0.892-0.977,1.883-1.219,2.941H386.4
			c-0.609,0-1.103,0.494-1.103,1.103v2.063c0,0.609,0.494,1.103,1.103,1.103h1.592c0.242,1.058,0.658,2.049,1.219,2.941
			l-1.126,1.126c-0.431,0.431-0.431,1.129,0,1.56l1.459,1.459c0.431,0.431,1.129,0.431,1.56,0l1.126-1.126
			c0.892,0.561,1.883,0.977,2.941,1.218v1.592c0,0.609,0.494,1.103,1.103,1.103h2.063c0.609,0,1.103-0.494,1.103-1.103v-1.592
			c1.058-0.241,2.049-0.658,2.941-1.218l1.126,1.126c0.431,0.431,1.129,0.431,1.56,0l1.459-1.459c0.431-0.431,0.431-1.129,0-1.56
			l-1.126-1.126c0.56-0.892,0.977-1.883,1.219-2.941h1.592C408.822,225.082,409.315,224.588,409.315,223.979z M397.788,227.642
			c-2.984,0.296-5.471-2.192-5.175-5.176c0.219-2.208,2.005-3.994,4.212-4.212c2.984-0.295,5.471,2.192,5.175,5.175
			C401.782,225.637,399.996,227.423,397.788,227.642z"/>
		<path style="fill:#263238;" d="M240.789,89.801v-1.057c0-0.312-0.253-0.565-0.565-0.565h-0.816
			c-0.124-0.542-0.337-1.049-0.624-1.506l0.577-0.577c0.221-0.221,0.221-0.578,0-0.799l-0.747-0.747
			c-0.221-0.221-0.579-0.221-0.799,0l-0.577,0.577c-0.457-0.287-0.964-0.5-1.506-0.624v-0.815c0-0.312-0.253-0.565-0.565-0.565
			h-1.057c-0.312,0-0.565,0.253-0.565,0.565v0.815c-0.542,0.124-1.049,0.337-1.506,0.624l-0.577-0.577
			c-0.221-0.221-0.578-0.221-0.799,0l-0.747,0.747c-0.221,0.221-0.221,0.578,0,0.799l0.577,0.577
			c-0.287,0.457-0.5,0.964-0.624,1.506h-0.816c-0.312,0-0.565,0.253-0.565,0.565v1.057c0,0.312,0.253,0.565,0.565,0.565h0.816
			c0.124,0.542,0.337,1.049,0.624,1.506l-0.577,0.577c-0.221,0.221-0.221,0.578,0,0.799l0.747,0.747
			c0.221,0.221,0.579,0.221,0.799,0l0.577-0.577c0.457,0.287,0.964,0.5,1.506,0.624v0.815c0,0.312,0.253,0.565,0.565,0.565h1.057
			c0.312,0,0.565-0.253,0.565-0.565v-0.815c0.542-0.124,1.049-0.337,1.506-0.624l0.577,0.577c0.221,0.221,0.578,0.221,0.799,0
			l0.747-0.747c0.221-0.221,0.221-0.578,0-0.799l-0.577-0.577c0.287-0.457,0.5-0.964,0.624-1.506h0.816
			C240.536,90.366,240.789,90.113,240.789,89.801z M234.885,91.677c-1.528,0.151-2.802-1.122-2.651-2.651
			c0.112-1.131,1.027-2.046,2.158-2.158c1.528-0.151,2.802,1.122,2.651,2.651C236.931,90.65,236.016,91.565,234.885,91.677z"/>
		<path style="fill:#263238;" d="M112.152,159.822h-6.8v6.8h6.8V159.822z M106.727,161.197h4.049v4.049h-4.049V161.197z"/>
		<path style="fill:#263238;" d="M386.826,292.713h-6.8v6.8h6.8V292.713z M381.401,294.088h4.049v4.049h-4.049V294.088z"/>
		<path style="fill:#263238;" d="M284.806,97.919h-6.8v6.8h6.8V97.919z M279.382,99.295h4.049v4.049h-4.049V99.295z"/>
		<path style="fill:#263238;" d="M108.149,268.415h-6.8v6.8h6.8V268.415z M102.725,269.79h4.049v4.049h-4.049V269.79z"/>
		<path style="opacity:0.9;fill:#263238;" d="M306.699,144.965c-2.256,0-4.085,1.829-4.085,4.085c0,2.256,1.829,4.085,4.085,4.085
			c2.256,0,4.085-1.829,4.085-4.085C310.785,146.794,308.956,144.965,306.699,144.965z M306.699,151.501
			c-1.354,0-2.451-1.098-2.451-2.451c0-1.354,1.097-2.451,2.451-2.451c1.354,0,2.451,1.098,2.451,2.451
			C309.15,150.404,308.053,151.501,306.699,151.501z"/>
	</g>
</g>
<g id="Bubble_Speach">
	<g>
		<path style="fill:#263238;" d="M233.986,164.181l-9.158-12.68c3.487,0,6.34-2.853,6.34-6.34v-34.518c0-3.487-2.853-6.34-6.34-6.34
			h-79.602c-3.487,0-6.34,2.853-6.34,6.34v34.518c0,3.487,2.853,6.34,6.34,6.34h68.834L233.986,164.181z"/>
		<g>
			<path style="fill:#C6FF00;" d="M165.349,126.493c0-2.14-1.735-3.874-3.874-3.874s-3.874,1.735-3.874,3.874
				c0,2.14,1.735,3.875,3.874,3.875S165.349,128.633,165.349,126.493z"/>
			<path style="fill:#C6FF00;" d="M188.243,126.493c0-2.14-1.735-3.874-3.874-3.874s-3.874,1.735-3.874,3.874
				c0,2.14,1.735,3.875,3.874,3.875S188.243,128.633,188.243,126.493z"/>
			<path style="fill:#C6FF00;" d="M211.138,126.493c0-2.14-1.735-3.874-3.874-3.874s-3.874,1.735-3.874,3.874
				c0,2.14,1.735,3.875,3.874,3.875S211.138,128.633,211.138,126.493z"/>
		</g>
	</g>
</g>
</svg>
